<?xml version="1.0" encoding="UTF-8"?>
<svg width="320px" height="80px" viewBox="0 0 320 80" version="1.1" xmlns="http://www.w3.org/2000/svg" xmlns:xlink="http://www.w3.org/1999/xlink">
    <title>FMP_Lockup_2L_Dark_RGB</title>
    <g id="FMP_Lockup_2L_Dark_RGB" stroke="none" stroke-width="1" fill="none" fill-rule="evenodd">
        <g id="Group">
            <path d="M19.283443,1.54424242 L19.283443,4.92121212 C19.283443,5.14181818 19.136,5.28808081 18.9156456,5.28808081 L4.37873418,5.28808081 L4.37873418,12.189899 L16.3767089,12.189899 C16.5970633,12.189899 16.7445063,12.3369697 16.7445063,12.5567677 L16.7445063,15.9337374 C16.7445063,16.1543434 16.5970633,16.3006061 16.3767089,16.3006061 L4.37873418,16.3006061 L4.37873418,26.5058586 C4.37873418,26.7264646 4.23210127,26.8727273 4.01093671,26.8727273 L0.367797468,26.8727273 C0.146632911,26.8727273 0,26.7264646 0,26.5058586 L0,1.54424242 C0,1.32444444 0.146632911,1.17737374 0.367797468,1.17737374 L18.9156456,1.17737374 C19.136,1.17737374 19.283443,1.32444444 19.283443,1.54424242" id="Fill-1" fill="#64717D"></path>
            <g id="Group-5" transform="translate(23.493671, 0.000000)" fill="#64717D">
                <path d="M17.740962,16.0072727 C16.3977722,12.299798 14.9079494,8.59232323 13.3800506,5.21535354 L12.5156456,5.21535354 C10.988557,8.59232323 9.47929114,12.299798 8.13610127,16.0072727 L17.740962,16.0072727 Z M25.4509367,26.8727273 L21.4391899,26.8727273 C21.2188354,26.8727273 21.0713924,26.7628283 21.0163038,26.5422222 C20.4824304,24.4315152 19.8383797,22.2109091 19.1027848,19.9717172 L6.79210127,19.9717172 C6.05650633,22.2109091 5.4124557,24.4315152 4.89721519,26.5422222 C4.84212658,26.7628283 4.69549367,26.8727273 4.47432911,26.8727273 L0.610025316,26.8727273 C0.352405063,26.8727273 0.204962025,26.7264646 0.278683544,26.4686869 C2.59726582,18.2836364 6.13022785,9.25333333 9.69964557,1.65414141 C9.86572152,1.30585859 10.0682532,1.17737374 10.4182278,1.17737374 L15.6435443,1.17737374 C15.9927089,1.17737374 16.1952405,1.30585859 16.3605063,1.65414141 C19.968,9.23474747 23.4450633,18.2836364 25.7822785,26.4686869 C25.856,26.7264646 25.708557,26.8727273 25.4509367,26.8727273 L25.4509367,26.8727273 Z" id="Fill-2"></path>
                <path d="M32.0372658,14.2448485 C32.0372658,6.27959596 37.2998481,0.69979798 44.8072911,0.69979798 L45.3597975,0.69979798 C50.0698734,0.69979798 53.7130127,3.08606061 55.6451646,6.53656566 C55.7739747,6.75636364 55.7367089,6.94060606 55.5163544,7.05050505 L52.2782785,8.64727273 C52.0571139,8.75717172 51.7808608,8.75717172 51.6342278,8.48242424 C50.2724051,6.13252525 48.2292658,4.88484848 45.2123544,4.88484848 L44.6598481,4.88484848 C39.9311392,4.88484848 36.6744304,8.62868687 36.6744304,14.0614141 C36.6744304,19.5127273 39.8760506,23.1652525 44.6598481,23.1652525 L45.2123544,23.1652525 C48.3029873,23.1652525 50.1063291,22.119596 51.4867848,20.5220202 C51.6706835,20.3208081 51.8732152,20.2836364 52.0935696,20.3935354 L55.424,22.0088889 C55.5536203,22.0824242 55.6078987,22.1737374 55.6078987,22.2658586 C55.6078987,22.3579798 55.571443,22.4315152 55.4977215,22.5414141 C53.4553924,25.5143434 49.7757975,27.350303 45.2860759,27.350303 L44.7335696,27.350303 C37.0973165,27.350303 32.0372658,22.119596 32.0372658,14.2448485" id="Fill-4"></path>
            </g>
            <path d="M108.450025,23.1288889 L108.450025,26.5058586 C108.450025,26.7264646 108.302582,26.8727273 108.081418,26.8727273 L88.761519,26.8727273 C88.5403544,26.8727273 88.3937215,26.7264646 88.3937215,26.5058586 L88.3937215,1.54424242 C88.3937215,1.32444444 88.5403544,1.17737374 88.761519,1.17737374 L107.750886,1.17737374 C107.971241,1.17737374 108.118684,1.32444444 108.118684,1.54424242 L108.118684,4.92121212 C108.118684,5.14181818 107.971241,5.28808081 107.750886,5.28808081 L92.7724557,5.28808081 L92.7724557,11.9692929 L104.953519,11.9692929 C105.173873,11.9692929 105.322127,12.1163636 105.322127,12.3369697 L105.322127,15.6767677 C105.322127,15.8973737 105.173873,16.0444444 104.953519,16.0444444 L92.7724557,16.0444444 L92.7724557,22.7620202 L108.081418,22.7620202 C108.302582,22.7620202 108.450025,22.9082828 108.450025,23.1288889" id="Fill-6" fill="#64717D"></path>
            <g id="Group-11" transform="translate(119.088608, 0.000000)" fill="#64717D">
                <path d="M18.1387342,19.4391919 C18.1387342,17.0537374 16.556557,15.9709091 13.0786835,15.9709091 L4.41194937,15.9709091 L4.41194937,22.8719192 L13.0786835,22.8719192 C16.6116456,22.8719192 18.1387342,21.8440404 18.1387342,19.4391919 Z M11.8456709,5.17818182 L4.41194937,5.17818182 L4.41194937,12.0791919 L11.8456709,12.0791919 C15.1761013,12.0791919 16.7031899,10.9963636 16.7031899,8.62868687 C16.7031899,6.2610101 15.1761013,5.17818182 11.8456709,5.17818182 Z M22.6284557,19.8246465 C22.6284557,24.3216162 19.1692152,26.8727273 13.0600506,26.8727273 L0.400202532,26.8727273 C0.179848101,26.8727273 0.0324050633,26.7264646 0.0324050633,26.5058586 L0.0324050633,1.54424242 C0.0324050633,1.32444444 0.179848101,1.17737374 0.400202532,1.17737374 L11.9380253,1.17737374 C17.8811139,1.17737374 21.12,3.52646465 21.12,7.82141414 C21.12,10.6480808 19.6844557,12.5018182 16.7769114,13.3640404 C20.8615696,14.2270707 22.6284557,16.6674747 22.6284557,19.8246465 L22.6284557,19.8246465 Z" id="Fill-7"></path>
                <path d="M44.1373165,23.1652525 C49.4185316,23.1652525 52.748962,19.549899 52.748962,14.0250505 C52.748962,8.50020202 49.4185316,4.88484848 44.1373165,4.88484848 L43.5856203,4.88484848 C38.3044051,4.88484848 34.9739747,8.50020202 34.9739747,14.0250505 C34.9739747,19.549899 38.3044051,23.1652525 43.5856203,23.1652525 L44.1373165,23.1652525 Z M30.3368101,14.0250505 C30.3368101,6.27959596 35.4892152,0.69979798 43.5856203,0.69979798 L44.1373165,0.69979798 C52.2337215,0.69979798 57.3861266,6.27959596 57.3861266,14.0250505 C57.3861266,21.7705051 52.2337215,27.350303 44.1373165,27.350303 L43.5856203,27.350303 C35.4892152,27.350303 30.3368101,21.7705051 30.3368101,14.0250505 L30.3368101,14.0250505 Z" id="Fill-9"></path>
                <path d="M78.656,23.1652525 C83.9364051,23.1652525 87.2668354,19.549899 87.2668354,14.0250505 C87.2668354,8.50020202 83.9364051,4.88484848 78.656,4.88484848 L78.1034937,4.88484848 C72.8222785,4.88484848 69.4926582,8.50020202 69.4926582,14.0250505 C69.4926582,19.549899 72.8222785,23.1652525 78.1034937,23.1652525 L78.656,23.1652525 Z M64.8554937,14.0250505 C64.8554937,6.27959596 70.0078987,0.69979798 78.1034937,0.69979798 L78.656,0.69979798 C86.7524051,0.69979798 91.904,6.27959596 91.904,14.0250505 C91.904,21.7705051 86.7524051,27.350303 78.656,27.350303 L78.1034937,27.350303 C70.0078987,27.350303 64.8554937,21.7705051 64.8554937,14.0250505 L64.8554937,14.0250505 Z" id="Fill-10"></path>
            </g>
            <path d="M242.732557,26.8727273 L237.984405,26.8727273 C237.672506,26.8727273 237.542886,26.7991919 237.340354,26.5608081 C234.010734,22.6513131 230.073519,18.760404 226.724456,15.8973737 L224.589772,15.8973737 L224.589772,26.5058586 C224.589772,26.7264646 224.443139,26.8727273 224.221975,26.8727273 L220.578025,26.8727273 C220.357671,26.8727273 220.210228,26.7264646 220.210228,26.5058586 L220.210228,1.54424242 C220.210228,1.32444444 220.357671,1.17737374 220.578025,1.17737374 L224.221975,1.17737374 C224.443139,1.17737374 224.589772,1.32444444 224.589772,1.54424242 L224.589772,11.6759596 L226.760911,11.6759596 C230.348962,8.44525253 233.66157,4.95838384 236.365772,1.45212121 C236.549671,1.21373737 236.697924,1.17737374 236.918278,1.17737374 L241.408,1.17737374 C241.628354,1.17737374 241.738532,1.28727273 241.738532,1.43434343 C241.738532,1.50787879 241.702076,1.59919192 241.609722,1.70909091 C237.653873,6.57292929 233.734481,10.5559596 230.109975,13.639596 C234.673418,17.4933333 238.997063,21.7882828 242.935089,26.4137374 C243.13762,26.6521212 243.026633,26.8727273 242.732557,26.8727273" id="Fill-12" fill="#64717D"></path>
            <polyline id="Fill-13" fill="#1B2529" points="0.00405063291 72.3030303 0.00405063291 47.9232323 3.37336709 47.9232323 12.678481 63.4044444 21.8969114 47.9232323 25.2832405 47.9232323 25.2832405 72.3030303 22.4550886 72.3030303 22.4550886 51.9806061 13.9528101 66.2254545 11.334481 66.2254545 2.81437975 52.0678788 2.81437975 72.3030303 0.00405063291 72.3030303"></polyline>
            <path d="M37.5218228,70.1785859 C39.0108354,70.1785859 40.2446582,69.8149495 41.222481,69.090101 C42.2003038,68.3652525 42.9277975,67.3810101 43.404962,66.1381818 L43.404962,64.5357576 L38.4648101,64.5357576 C36.8469873,64.5357576 35.7030886,64.7919192 35.0339241,65.3026263 C34.3647595,65.8133333 34.0301772,66.509899 34.0301772,67.3915152 C34.0301772,68.2739394 34.3210127,68.9591919 34.9026835,69.4464646 C35.4843544,69.9345455 36.3576709,70.1785859 37.5218228,70.1785859 Z M36.9976709,72.6343434 C35.1708354,72.6343434 33.7531139,72.1753535 32.7469367,71.2581818 C31.7399494,70.3410101 31.2368608,69.110303 31.2368608,67.5660606 C31.2368608,66.0686869 31.7982785,64.8234343 32.9211139,63.8311111 C34.0447595,62.8387879 35.8513418,62.3418182 38.342481,62.3418182 L43.404962,62.3418182 L43.404962,61.9757576 C43.404962,58.7377778 41.9208101,57.1183838 38.9533165,57.1183838 C37.7429873,57.1183838 36.7270886,57.3381818 35.9064304,57.7793939 C35.0865823,58.2206061 34.425519,58.8476768 33.9256709,59.659798 L31.9878481,58.1979798 C32.6853671,57.0367677 33.6259241,56.1454545 34.8070886,55.5248485 C35.9882532,54.9034343 37.3533165,54.5931313 38.9006582,54.5931313 L39.2498228,54.5931313 C41.3561519,54.5931313 43.0266329,55.2 44.2604557,56.4129293 C45.4942785,57.6258586 46.1115949,59.4165657 46.1115949,61.7850505 L46.1115949,72.3030303 L43.4397975,72.3030303 L43.4397975,69.0812121 C42.7771139,70.2076768 41.8973165,71.0812121 40.8036456,71.7018182 C39.7099747,72.3232323 38.4405063,72.6343434 36.9976709,72.6343434 L36.9976709,72.6343434 Z" id="Fill-14" fill="#1B2529"></path>
            <path d="M52.1162532,72.3030303 L52.1162532,54.9753535 L54.8747342,54.9753535 L54.8747342,57.9886869 C55.4215696,56.8969697 56.1198987,56.0581818 56.9697215,55.4723232 C57.8187342,54.8864646 58.803038,54.5931313 59.9202025,54.5931313 C60.4556962,54.5931313 60.9676962,54.6448485 61.4562025,54.749899 L61.4562025,57.5006061 C61.1880506,57.4658586 60.9004557,57.4367677 60.5926076,57.4141414 C60.2839494,57.3907071 59.9842025,57.3793939 59.6933671,57.3793939 C58.4247089,57.3793939 57.3974684,57.7648485 56.6116456,58.5365657 C55.8258228,59.309899 55.2473924,60.3393939 54.8747342,61.6282828 L54.8747342,72.3030303 L52.1162532,72.3030303" id="Fill-15" fill="#1B2529"></path>
            <path d="M65.7685063,72.3030303 L65.7685063,46.8783838 L68.5269873,46.8783838 L68.5269873,62.6383838 C70.0856709,61.3729293 71.5900759,60.0929293 73.0393924,58.7983838 C74.4887089,57.5038384 75.8237975,56.2294949 77.0462785,54.9753535 L80.5030886,54.9753535 C79.1526076,56.3692929 77.7065316,57.7616162 76.1648608,59.1555556 C74.6223797,60.5486869 73.0483038,61.8892929 71.4418228,63.1781818 C74.828962,65.9062626 78.1115949,68.9478788 81.2889114,72.3030303 L77.6571139,72.3030303 C76.2717975,70.8517172 74.7819747,69.3858586 73.1876456,67.9054545 C71.5933165,66.4258586 70.0394937,65.0820202 68.5269873,63.8747475 L68.5269873,72.3030303 L65.7685063,72.3030303" id="Fill-16" fill="#1B2529"></path>
            <path d="M91.2923544,57.0836364 C89.8487089,57.0836364 88.6562025,57.570101 87.7132152,58.5454545 C86.771038,59.5208081 86.2055696,60.8331313 86.0200506,62.4808081 L96.4949873,62.4808081 C96.4131646,60.9486869 95.9505823,59.6662626 95.1072405,58.6327273 C94.2630886,57.5991919 93.0965063,57.0836364 91.6066835,57.0836364 L91.2923544,57.0836364 Z M91.4673418,72.6860606 C89.8138734,72.6860606 88.364557,72.3078788 87.1193924,71.5539394 C85.8742278,70.7991919 84.9053165,69.7430303 84.2126582,68.3846465 C83.52,67.0262626 83.1740759,65.4472727 83.1740759,63.6484848 C83.1740759,61.8836364 83.5175696,60.32 84.204557,58.9551515 C84.8907342,57.5911111 85.8474937,56.5228283 87.0764557,55.750303 C88.3037975,54.9785859 89.7271899,54.5931313 91.3450127,54.5931313 L91.6763544,54.5931313 C93.2123544,54.5931313 94.5506835,54.9729293 95.6913418,55.7333333 C96.832,56.4937374 97.7134177,57.5644444 98.3364051,58.9462626 C98.9593924,60.3280808 99.270481,61.9531313 99.270481,63.8222222 L99.270481,64.7628283 L86.0022278,64.7628283 C86.188557,66.4226263 86.7734684,67.7406061 87.756962,68.7151515 C88.7404557,69.6905051 90.0180253,70.1785859 91.5888608,70.1785859 L91.9031899,70.1785859 C92.8348354,70.1785859 93.6984304,69.9927273 94.4955949,69.6210101 C95.2927595,69.2492929 95.9651646,68.7385859 96.5128101,68.0888889 L98.2756456,69.8828283 C97.5189873,70.7531313 96.5816709,71.4375758 95.4645063,71.9369697 C94.3473418,72.4363636 93.1313418,72.6860606 91.8156962,72.6860606 L91.4673418,72.6860606 L91.4673418,72.6860606 Z" id="Fill-17" fill="#1B2529"></path>
            <path d="M111.979747,72.5115152 C110.048405,72.5115152 108.558582,72.0307071 107.511089,71.0658586 C106.463595,70.1034343 105.939443,68.5705051 105.939443,66.4694949 L105.939443,57.3616162 L102.517468,57.3616162 L102.517468,54.9753535 L105.939443,54.9753535 L105.939443,49.6993939 L108.697924,49.6993939 L108.697924,54.9753535 L114.842734,54.9753535 L114.842734,57.3616162 L108.697924,57.3616162 L108.697924,66.0856566 C108.697924,67.5369697 109.014684,68.550303 109.649013,69.1248485 C110.284152,69.6993939 111.188253,69.9862626 112.363747,69.9862626 C112.876557,69.9862626 113.34157,69.960404 113.761215,69.9086869 C114.180051,69.8561616 114.616709,69.7834343 115.07038,69.6905051 L115.07038,72.1115152 C114.592405,72.2278788 114.086076,72.3232323 113.551392,72.3991919 C113.015899,72.4743434 112.492557,72.5115152 111.979747,72.5115152" id="Fill-18" fill="#1B2529"></path>
            <path d="M119.731848,72.3022222 L122.489519,72.3022222 L122.489519,54.9753535 L119.731848,54.9753535 L119.731848,72.3022222 Z M121.110684,51.3357576 C120.516861,51.3357576 120.045367,51.1563636 119.696203,50.7959596 C119.347848,50.4363636 119.172861,49.9725253 119.172861,49.4036364 C119.172861,48.8347475 119.347848,48.370101 119.696203,48.0105051 C120.045367,47.6509091 120.516861,47.469899 121.110684,47.469899 C121.704506,47.469899 122.17519,47.6509091 122.524354,48.0105051 C122.874329,48.370101 123.048506,48.8347475 123.048506,49.4036364 C123.048506,49.9725253 122.874329,50.4363636 122.524354,50.7959596 C122.17519,51.1563636 121.704506,51.3357576 121.110684,51.3357576 L121.110684,51.3357576 Z" id="Fill-19" fill="#1B2529"></path>
            <path d="M128.774481,72.3030303 L128.774481,54.9753535 L131.532962,54.9753535 L131.532962,58.2666667 C132.172962,57.1288889 132.999291,56.2327273 134.011949,55.5765657 C135.024608,54.9212121 136.19443,54.5931313 137.521418,54.5931313 L137.870582,54.5931313 C139.83757,54.5931313 141.361418,55.2452525 142.444557,56.5511111 C143.526886,57.8585859 144.068051,59.7236364 144.068051,62.150303 L144.068051,72.3030303 L141.30957,72.3030303 L141.30957,62.5511111 C141.30957,60.7628283 140.977418,59.4165657 140.313924,58.5107071 C139.651241,57.6056566 138.609418,57.1531313 137.189266,57.1531313 L136.857924,57.1531313 C135.565772,57.1531313 134.46319,57.570101 133.549367,58.4064646 C132.635544,59.2428283 131.963139,60.2925253 131.532962,61.5587879 L131.532962,72.3030303 L128.774481,72.3030303" id="Fill-20" fill="#1B2529"></path>
            <path d="M156.201316,64.7450505 L156.48081,64.7450505 C157.865316,64.7450505 158.933873,64.3886869 159.684051,63.6743434 C160.435038,62.96 160.810127,62.0048485 160.810127,60.809697 C160.810127,59.6137374 160.435038,58.6593939 159.684051,57.9450505 C158.933873,57.2307071 157.865316,56.8743434 156.48081,56.8743434 L156.201316,56.8743434 C154.828152,56.8743434 153.762835,57.2307071 153.006177,57.9450505 C152.249519,58.6593939 151.872,59.6137374 151.872,60.809697 C151.872,62.0048485 152.249519,62.96 153.006177,63.6743434 C153.762835,64.3886869 154.828152,64.7450505 156.201316,64.7450505 Z M150.91119,75.1062626 C150.91119,76.8589899 152.680506,77.7357576 156.219139,77.7357576 C158.301975,77.7357576 159.890633,77.4456566 160.985114,76.8654545 C162.078785,76.2844444 162.62562,75.5014141 162.62562,74.5147475 C162.62562,73.0165657 161.362633,72.2682828 158.837468,72.2682828 L154.263494,72.2682828 C154.170329,72.2682828 154.077165,72.2682828 153.984,72.2682828 C153.041013,72.5236364 152.293266,72.8977778 151.740759,73.3907071 C151.188253,73.8852525 150.91119,74.4565657 150.91119,75.1062626 Z M156.184304,67.0092929 C155.298835,67.0092929 154.478987,66.9107071 153.722329,66.7135354 C153.152,67.3284848 152.866835,67.9030303 152.866835,68.4363636 C152.866835,69.4359596 153.582987,69.9345455 155.014481,69.9345455 L159.133975,69.9345455 C161.21762,69.9345455 162.771443,70.3151515 163.795443,71.0755556 C164.819443,71.8359596 165.332253,72.930101 165.332253,74.3579798 C165.332253,76.1688889 164.499443,77.5620202 162.835443,78.5365657 C161.171443,79.5119192 158.877975,80 155.956658,80 C153.582987,80 151.697013,79.6347475 150.300354,78.9034343 C148.903696,78.1713131 148.205367,77.080404 148.205367,75.6290909 C148.205367,74.6884848 148.510785,73.8731313 149.12162,73.1830303 C149.733266,72.4913131 150.579848,71.9078788 151.662177,71.4319192 C150.929013,70.8517172 150.562025,70.0969697 150.562025,69.1684848 C150.562025,68.1123232 151.057013,67.0610101 152.046177,66.0161616 C151.091848,65.4593939 150.375696,64.7256566 149.898532,63.8133333 C149.421367,62.9026263 149.18319,61.9014141 149.18319,60.809697 C149.18319,58.9640404 149.805367,57.4658586 151.051342,56.3167677 C152.296506,55.1676768 154.007494,54.5931313 156.184304,54.5931313 L156.497823,54.5931313 C158.104304,54.5931313 159.483949,54.930101 160.635949,55.6032323 C161.299443,54.3264646 162.486278,53.6872727 164.197266,53.6872727 C164.592608,53.6872727 165.035747,53.7333333 165.524253,53.8262626 L165.524253,56.1082828 C165.209924,56.0266667 164.936101,55.9773737 164.703595,55.959596 C164.470278,55.9426263 164.266937,55.9337374 164.091949,55.9337374 C163.114937,55.9337374 162.398785,56.1721212 161.945114,56.6480808 C162.969114,57.7511111 163.481924,59.1377778 163.481924,60.809697 C163.481924,62.6440404 162.864608,64.1357576 161.630785,65.2848485 C160.396962,66.4347475 158.685975,67.0092929 156.497823,67.0092929 L156.184304,67.0092929 L156.184304,67.0092929 Z" id="Fill-21" fill="#1B2529"></path>
            <path d="M188.498633,50.6230303 L181.708152,50.6230303 L181.708152,61.0359596 L188.498633,61.0359596 C192.631089,61.0359596 194.696911,59.3066667 194.696911,55.8464646 C194.696911,52.3636364 192.631089,50.6230303 188.498633,50.6230303 Z M178.809519,72.3030303 L178.809519,47.9232323 L188.761114,47.9232323 C191.752101,47.9232323 193.984,48.6375758 195.456,50.0646465 C196.92881,51.4933333 197.665215,53.419798 197.665215,55.8464646 C197.665215,58.2618182 196.92881,60.1826263 195.456,61.6105051 C193.984,63.0383838 191.752101,63.7527273 188.761114,63.7527273 L181.708152,63.7527273 L181.708152,72.3030303 L178.809519,72.3030303 L178.809519,72.3030303 Z" id="Fill-22" fill="#1B2529"></path>
            <path d="M207.475848,70.1785859 C208.965671,70.1785859 210.200304,69.8149495 211.178127,69.090101 C212.155139,68.3652525 212.882633,67.3810101 213.359797,66.1381818 L213.359797,64.5357576 L208.418835,64.5357576 C206.801013,64.5357576 205.657924,64.7919192 204.988759,65.3026263 C204.319595,65.8133333 203.985013,66.509899 203.985013,67.3915152 C203.985013,68.2739394 204.275848,68.9591919 204.857519,69.4464646 C205.44,69.9345455 206.312506,70.1785859 207.475848,70.1785859 Z M206.952506,72.6343434 C205.125671,72.6343434 203.707949,72.1753535 202.701772,71.2581818 C201.694785,70.3410101 201.190886,69.110303 201.190886,67.5660606 C201.190886,66.0686869 201.753114,64.8234343 202.876759,63.8311111 C203.998785,62.8387879 205.806177,62.3418182 208.297316,62.3418182 L213.359797,62.3418182 L213.359797,61.9757576 C213.359797,58.7377778 211.875646,57.1183838 208.908152,57.1183838 C207.697823,57.1183838 206.681924,57.3381818 205.861266,57.7793939 C205.040608,58.2206061 204.380354,58.8476768 203.880506,59.659798 L201.941873,58.1979798 C202.640203,57.0367677 203.580759,56.1454545 204.761924,55.5248485 C205.943089,54.9034343 207.307342,54.5931313 208.855494,54.5931313 L209.204658,54.5931313 C211.311797,54.5931313 212.981468,55.2 214.215291,56.4129293 C215.449114,57.6258586 216.06643,59.4165657 216.06643,61.7850505 L216.06643,72.3030303 L213.394633,72.3030303 L213.394633,69.0812121 C212.731949,70.2076768 211.852962,71.0812121 210.758481,71.7018182 C209.664,72.3232323 208.395342,72.6343434 206.952506,72.6343434 L206.952506,72.6343434 Z" id="Fill-23" fill="#1B2529"></path>
            <path d="M222.071899,72.3030303 L222.071899,54.9753535 L224.82957,54.9753535 L224.82957,57.9886869 C225.376405,56.8969697 226.074734,56.0581818 226.924557,55.4723232 C227.77438,54.8864646 228.757873,54.5931313 229.875848,54.5931313 C230.410532,54.5931313 230.923342,54.6448485 231.411038,54.749899 L231.411038,57.5006061 C231.143696,57.4658586 230.856101,57.4367677 230.547443,57.4141414 C230.238785,57.3907071 229.939038,57.3793939 229.648203,57.3793939 C228.379544,57.3793939 227.352304,57.7648485 226.567291,58.5365657 C225.781468,59.309899 225.202228,60.3393939 224.82957,61.6282828 L224.82957,72.3030303 L222.071899,72.3030303" id="Fill-24" fill="#1B2529"></path>
            <path d="M243.754127,72.5115152 C241.821975,72.5115152 240.332152,72.0307071 239.284658,71.0658586 C238.237165,70.1034343 237.713013,68.5705051 237.713013,66.4694949 L237.713013,57.3616162 L234.291848,57.3616162 L234.291848,54.9753535 L237.713013,54.9753535 L237.713013,49.6993939 L240.472304,49.6993939 L240.472304,54.9753535 L246.617114,54.9753535 L246.617114,57.3616162 L240.472304,57.3616162 L240.472304,66.0856566 C240.472304,67.5369697 240.788253,68.550303 241.423392,69.1248485 C242.057722,69.6993939 242.962633,69.9862626 244.138127,69.9862626 C244.650127,69.9862626 245.115949,69.960404 245.534785,69.9086869 C245.95362,69.8561616 246.390278,69.7834343 246.843949,69.6905051 L246.843949,72.1115152 C246.366785,72.2278788 245.860456,72.3232323 245.324962,72.3991919 C244.790278,72.4743434 244.266127,72.5115152 243.754127,72.5115152" id="Fill-25" fill="#1B2529"></path>
            <path d="M251.505418,72.3030303 L251.505418,54.9753535 L254.263089,54.9753535 L254.263089,58.2666667 C254.903089,57.1288889 255.730228,56.2327273 256.742886,55.5765657 C257.755544,54.9212121 258.924557,54.5931313 260.251544,54.5931313 L260.600709,54.5931313 C262.567696,54.5931313 264.092354,55.2452525 265.174684,56.5511111 C266.257013,57.8585859 266.798177,59.7236364 266.798177,62.150303 L266.798177,72.3030303 L264.040506,72.3030303 L264.040506,62.5511111 C264.040506,60.7628283 263.707544,59.4165657 263.044861,58.5107071 C262.381367,57.6056566 261.340354,57.1531313 259.920203,57.1531313 L259.588051,57.1531313 C258.296709,57.1531313 257.193316,57.570101 256.279494,58.4064646 C255.365671,59.2428283 254.693266,60.2925253 254.263089,61.5587879 L254.263089,72.3030303 L251.505418,72.3030303" id="Fill-26" fill="#1B2529"></path>
            <path d="M279.927089,57.0836364 C278.484253,57.0836364 277.290937,57.570101 276.347949,58.5454545 C275.405772,59.5208081 274.841114,60.8331313 274.654785,62.4808081 L285.129722,62.4808081 C285.047899,60.9486869 284.585316,59.6662626 283.741975,58.6327273 C282.897823,57.5991919 281.73043,57.0836364 280.241418,57.0836364 L279.927089,57.0836364 Z M280.102076,72.6860606 C278.448608,72.6860606 277.000101,72.3078788 275.754127,71.5539394 C274.508962,70.7991919 273.540051,69.7430303 272.848203,68.3846465 C272.154734,67.0262626 271.80881,65.4472727 271.80881,63.6484848 C271.80881,61.8836364 272.151494,60.32 272.839291,58.9551515 C273.525468,57.5911111 274.482228,56.5228283 275.71119,55.750303 C276.938532,54.9785859 278.361114,54.5931313 279.978937,54.5931313 L280.311089,54.5931313 C281.847089,54.5931313 283.185418,54.9729293 284.326886,55.7333333 C285.466734,56.4937374 286.348962,57.5644444 286.971139,58.9462626 C287.594127,60.3280808 287.906025,61.9531313 287.906025,63.8222222 L287.906025,64.7628283 L274.637772,64.7628283 C274.823291,66.4226263 275.408203,67.7406061 276.391696,68.7151515 C277.37438,69.6905051 278.652759,70.1785859 280.223595,70.1785859 L280.537924,70.1785859 C281.468759,70.1785859 282.333165,69.9927273 283.130329,69.6210101 C283.927494,69.2492929 284.599089,68.7385859 285.146734,68.0888889 L286.91038,69.8828283 C286.152911,70.7531313 285.216405,71.4375758 284.099241,71.9369697 C282.982076,72.4363636 281.765266,72.6860606 280.45043,72.6860606 L280.102076,72.6860606 L280.102076,72.6860606 Z" id="Fill-27" fill="#1B2529"></path>
            <path d="M293.107848,72.3030303 L293.107848,54.9753535 L295.866329,54.9753535 L295.866329,57.9886869 C296.412354,56.8969697 297.111494,56.0581818 297.961316,55.4723232 C298.810329,54.8864646 299.793823,54.5931313 300.911797,54.5931313 C301.446481,54.5931313 301.959291,54.6448485 302.447797,54.749899 L302.447797,57.5006061 C302.180456,57.4658586 301.892051,57.4367677 301.583392,57.4141414 C301.274734,57.3907071 300.974987,57.3793939 300.684962,57.3793939 C299.416304,57.3793939 298.389063,57.7648485 297.603241,58.5365657 C296.817418,59.309899 296.238987,60.3393939 295.866329,61.6282828 L295.866329,72.3030303 L293.107848,72.3030303" id="Fill-28" fill="#1B2529"></path>
            <path d="M312.852253,72.6860606 C309.384101,72.6860606 306.870278,71.5539394 305.310785,69.2905051 L307.230785,67.6185859 C308.464608,69.3834343 310.332759,70.2650505 312.835241,70.2650505 L313.14957,70.2650505 C314.42957,70.2650505 315.427646,70.0420202 316.143797,69.5951515 C316.859139,69.1482828 317.217215,68.5179798 317.217215,67.7058586 C317.217215,67.0092929 316.974987,66.4517172 316.492962,66.0339394 C316.009316,65.6153535 315.191899,65.2913131 314.039899,65.0585859 L310.896608,64.4145455 C307.568608,63.7414141 305.903797,62.1915152 305.903797,59.7648485 C305.903797,58.2092929 306.524354,56.9583838 307.763038,56.0113131 C309.003342,55.0666667 310.634937,54.5931313 312.660253,54.5931313 L313.010228,54.5931313 C315.96557,54.5931313 318.177215,55.6670707 319.643544,57.8141414 L317.723544,59.3640404 C317.141063,58.539798 316.460557,57.9418182 315.681215,57.570101 C314.901063,57.1991919 313.998582,57.0133333 312.974582,57.0133333 L312.660253,57.0133333 C311.462076,57.0133333 310.492354,57.2371717 309.753519,57.6840404 C309.014684,58.1309091 308.645266,58.7490909 308.645266,59.5385859 C308.645266,60.1535354 308.872101,60.6440404 309.325772,61.010101 C309.779443,61.3753535 310.536101,61.6686869 311.595747,61.8892929 L315.034734,62.6036364 C316.582886,62.9284848 317.789975,63.4909091 318.65681,64.2925253 C319.524456,65.0933333 319.957873,66.1842424 319.957873,67.5660606 C319.957873,69.0868687 319.366481,70.3208081 318.185316,71.2662626 C317.004152,72.2125253 315.349063,72.6860606 313.219241,72.6860606 L312.852253,72.6860606" id="Fill-29" fill="#1B2529"></path>
        </g>
    </g>
</svg>